<svg xmlns="http://www.w3.org/2000/svg" xmlns:xlink="http://www.w3.org/1999/xlink" width="500" zoomAndPan="magnify" viewBox="0 0 375 374.999991" height="500" preserveAspectRatio="xMidYMid meet" version="1.0"><defs><g/><clipPath id="57062fa5e6"><path d="M 73.191406 102.507812 L 164 102.507812 L 164 254.328125 L 73.191406 254.328125 Z M 73.191406 102.507812 " clip-rule="nonzero"/></clipPath><clipPath id="03fd91f3d7"><path d="M 73.191406 178.558594 L 164 102.789062 L 164 254.328125 Z M 73.191406 178.558594 " clip-rule="nonzero"/></clipPath><clipPath id="ca3fc25fd8"><path d="M 0.191406 0.71875 L 91 0.71875 L 91 152.328125 L 0.191406 152.328125 Z M 0.191406 0.71875 " clip-rule="nonzero"/></clipPath><clipPath id="a331ecbadc"><path d="M 0.191406 76.558594 L 91 0.789062 L 91 152.328125 Z M 0.191406 76.558594 " clip-rule="nonzero"/></clipPath><clipPath id="d5a425d9ff"><rect x="0" width="91" y="0" height="153"/></clipPath><clipPath id="3cc1e54ffb"><path d="M 207.332031 102.792969 L 298.136719 102.792969 L 298.136719 254.609375 L 207.332031 254.609375 Z M 207.332031 102.792969 " clip-rule="nonzero"/></clipPath><clipPath id="12262bbd41"><path d="M 298.136719 178.5625 L 207.332031 254.332031 L 207.332031 102.792969 Z M 298.136719 178.5625 " clip-rule="nonzero"/></clipPath><clipPath id="0f465a10fc"><path d="M 0.332031 0.792969 L 91.136719 0.792969 L 91.136719 152.398438 L 0.332031 152.398438 Z M 0.332031 0.792969 " clip-rule="nonzero"/></clipPath><clipPath id="d7ed80d3f4"><path d="M 91.136719 76.5625 L 0.332031 152.332031 L 0.332031 0.792969 Z M 91.136719 76.5625 " clip-rule="nonzero"/></clipPath><clipPath id="cc4bc738f1"><rect x="0" width="92" y="0" height="153"/></clipPath><clipPath id="40ecaaf286"><path d="M 163.996094 102.796875 L 207.335938 102.796875 L 207.335938 254.335938 L 163.996094 254.335938 Z M 163.996094 102.796875 " clip-rule="nonzero"/></clipPath><clipPath id="33608bec17"><path d="M 0.996094 0.796875 L 44.335938 0.796875 L 44.335938 152.335938 L 0.996094 152.335938 Z M 0.996094 0.796875 " clip-rule="nonzero"/></clipPath><clipPath id="9af117f154"><rect x="0" width="45" y="0" height="153"/></clipPath><clipPath id="3dee2e68e1"><rect x="0" width="143" y="0" height="322"/></clipPath><clipPath id="a0e63011f0"><rect x="0" width="143" y="0" height="322"/></clipPath><clipPath id="bbbd49995e"><path d="M 136.480469 150.335938 L 181.980469 150.335938 L 181.980469 195.484375 L 136.480469 195.484375 Z M 136.480469 150.335938 " clip-rule="nonzero"/></clipPath><clipPath id="ae1a78e3d8"><path d="M 159.183594 150.335938 C 146.644531 150.335938 136.480469 160.441406 136.480469 172.910156 C 136.480469 185.378906 146.644531 195.484375 159.183594 195.484375 C 171.71875 195.484375 181.882812 185.378906 181.882812 172.910156 C 181.882812 160.441406 171.71875 150.335938 159.183594 150.335938 Z M 159.183594 150.335938 " clip-rule="nonzero"/></clipPath><clipPath id="e166985df3"><path d="M 0.480469 0.335938 L 45.921875 0.335938 L 45.921875 45.484375 L 0.480469 45.484375 Z M 0.480469 0.335938 " clip-rule="nonzero"/></clipPath><clipPath id="ebf42afecc"><path d="M 23.183594 0.335938 C 10.644531 0.335938 0.480469 10.441406 0.480469 22.910156 C 0.480469 35.378906 10.644531 45.484375 23.183594 45.484375 C 35.71875 45.484375 45.882812 35.378906 45.882812 22.910156 C 45.882812 10.441406 35.71875 0.335938 23.183594 0.335938 Z M 23.183594 0.335938 " clip-rule="nonzero"/></clipPath><clipPath id="fab7fa45f1"><rect x="0" width="46" y="0" height="46"/></clipPath><clipPath id="5bbef5fbcd"><path d="M 136.480469 150.335938 L 182 150.335938 L 182 195.335938 L 136.480469 195.335938 Z M 136.480469 150.335938 " clip-rule="nonzero"/></clipPath><clipPath id="259e22ab95"><path d="M 159.179688 150.335938 C 146.644531 150.335938 136.480469 160.441406 136.480469 172.90625 C 136.480469 185.371094 146.644531 195.476562 159.179688 195.476562 C 171.714844 195.476562 181.875 185.371094 181.875 172.90625 C 181.875 160.441406 171.714844 150.335938 159.179688 150.335938 Z M 159.179688 150.335938 " clip-rule="nonzero"/></clipPath><clipPath id="783b035977"><path d="M 0.710938 0.996094 L 20.726562 0.996094 L 20.726562 20.851562 L 0.710938 20.851562 Z M 0.710938 0.996094 " clip-rule="nonzero"/></clipPath><clipPath id="c12200f269"><path d="M 10.699219 0.996094 C 5.183594 0.996094 0.710938 5.441406 0.710938 10.921875 C 0.710938 16.40625 5.183594 20.851562 10.699219 20.851562 C 16.210938 20.851562 20.683594 16.40625 20.683594 10.921875 C 20.683594 5.441406 16.210938 0.996094 10.699219 0.996094 Z M 10.699219 0.996094 " clip-rule="nonzero"/></clipPath><clipPath id="764dc13d8e"><path d="M 0.710938 0.996094 L 20.726562 0.996094 L 20.726562 20.851562 L 0.710938 20.851562 Z M 0.710938 0.996094 " clip-rule="nonzero"/></clipPath><clipPath id="a4fc69753e"><path d="M 10.699219 0.996094 C 5.183594 0.996094 0.710938 5.441406 0.710938 10.921875 C 0.710938 16.40625 5.183594 20.851562 10.699219 20.851562 C 16.210938 20.851562 20.683594 16.40625 20.683594 10.921875 C 20.683594 5.441406 16.210938 0.996094 10.699219 0.996094 Z M 10.699219 0.996094 " clip-rule="nonzero"/></clipPath><clipPath id="df0b4d7c8c"><rect x="0" width="21" y="0" height="21"/></clipPath><clipPath id="b43529a512"><path d="M 3.199219 4.929688 L 11.574219 4.929688 L 11.574219 13.242188 L 3.199219 13.242188 Z M 3.199219 4.929688 " clip-rule="nonzero"/></clipPath><clipPath id="8ee5f034c8"><path d="M 7.375 4.929688 C 5.070312 4.929688 3.199219 6.789062 3.199219 9.085938 C 3.199219 11.378906 5.070312 13.242188 7.375 13.242188 C 9.683594 13.242188 11.554688 11.378906 11.554688 9.085938 C 11.554688 6.789062 9.683594 4.929688 7.375 4.929688 Z M 7.375 4.929688 " clip-rule="nonzero"/></clipPath><clipPath id="b88f9627f6"><path d="M 0.199219 0.929688 L 8.574219 0.929688 L 8.574219 9.242188 L 0.199219 9.242188 Z M 0.199219 0.929688 " clip-rule="nonzero"/></clipPath><clipPath id="98ef6ec243"><path d="M 4.375 0.929688 C 2.070312 0.929688 0.199219 2.789062 0.199219 5.085938 C 0.199219 7.378906 2.070312 9.242188 4.375 9.242188 C 6.683594 9.242188 8.554688 7.378906 8.554688 5.085938 C 8.554688 2.789062 6.683594 0.929688 4.375 0.929688 Z M 4.375 0.929688 " clip-rule="nonzero"/></clipPath><clipPath id="e8081141d6"><rect x="0" width="9" y="0" height="10"/></clipPath><clipPath id="9a5e5fb2a6"><rect x="0" width="21" y="0" height="22"/></clipPath><clipPath id="66562d7d5a"><path d="M 24.601562 24.703125 L 70.101562 24.703125 L 70.101562 69.851562 L 24.601562 69.851562 Z M 24.601562 24.703125 " clip-rule="nonzero"/></clipPath><clipPath id="0c166ed4bc"><path d="M 47.300781 24.703125 C 34.765625 24.703125 24.601562 34.808594 24.601562 47.277344 C 24.601562 59.746094 34.765625 69.851562 47.300781 69.851562 C 59.839844 69.851562 70.003906 59.746094 70.003906 47.277344 C 70.003906 34.808594 59.839844 24.703125 47.300781 24.703125 Z M 47.300781 24.703125 " clip-rule="nonzero"/></clipPath><clipPath id="3e65e3bcab"><path d="M 0.601562 0.703125 L 46 0.703125 L 46 45.851562 L 0.601562 45.851562 Z M 0.601562 0.703125 " clip-rule="nonzero"/></clipPath><clipPath id="1c70714ab2"><path d="M 23.300781 0.703125 C 10.765625 0.703125 0.601562 10.808594 0.601562 23.277344 C 0.601562 35.746094 10.765625 45.851562 23.300781 45.851562 C 35.839844 45.851562 46.003906 35.746094 46.003906 23.277344 C 46.003906 10.808594 35.839844 0.703125 23.300781 0.703125 Z M 23.300781 0.703125 " clip-rule="nonzero"/></clipPath><clipPath id="732420fd70"><rect x="0" width="47" y="0" height="46"/></clipPath><clipPath id="ffd291a96d"><path d="M 24.601562 24.703125 L 70 24.703125 L 70 69.847656 L 24.601562 69.847656 Z M 24.601562 24.703125 " clip-rule="nonzero"/></clipPath><clipPath id="8efd9dc505"><path d="M 47.300781 24.703125 C 34.761719 24.703125 24.601562 34.808594 24.601562 47.273438 C 24.601562 59.738281 34.761719 69.847656 47.300781 69.847656 C 59.835938 69.847656 69.996094 59.738281 69.996094 47.273438 C 69.996094 34.808594 59.835938 24.703125 47.300781 24.703125 Z M 47.300781 24.703125 " clip-rule="nonzero"/></clipPath><clipPath id="8fa20d2a95"><path d="M 27 31 L 48 31 L 48 52 L 27 52 Z M 27 31 " clip-rule="nonzero"/></clipPath><clipPath id="e6289949fe"><path d="M 26.269531 32.601562 L 46.15625 30.332031 L 48.40625 50.066406 L 28.519531 52.332031 Z M 26.269531 32.601562 " clip-rule="nonzero"/></clipPath><clipPath id="9c6a0f7ee4"><path d="M 36.191406 31.46875 C 30.714844 32.09375 26.773438 37.019531 27.394531 42.464844 C 28.015625 47.914062 32.960938 51.824219 38.441406 51.199219 C 43.921875 50.578125 47.859375 45.652344 47.238281 40.203125 C 46.617188 34.753906 41.671875 30.84375 36.191406 31.46875 Z M 36.191406 31.46875 " clip-rule="nonzero"/></clipPath><clipPath id="128efcb4f0"><path d="M 0 0 L 20.878906 0 L 20.878906 21 L 0 21 Z M 0 0 " clip-rule="nonzero"/></clipPath><clipPath id="a346ac6736"><path d="M -0.730469 1.601562 L 19.15625 -0.667969 L 21.40625 19.066406 L 1.519531 21.332031 Z M -0.730469 1.601562 " clip-rule="nonzero"/></clipPath><clipPath id="29702745ae"><path d="M 9.191406 0.46875 C 3.714844 1.09375 -0.226562 6.019531 0.394531 11.464844 C 1.015625 16.914062 5.960938 20.824219 11.441406 20.199219 C 16.921875 19.578125 20.859375 14.652344 20.238281 9.203125 C 19.617188 3.753906 14.671875 -0.15625 9.191406 0.46875 Z M 9.191406 0.46875 " clip-rule="nonzero"/></clipPath><clipPath id="c09ec31903"><rect x="0" width="21" y="0" height="21"/></clipPath><clipPath id="432ce53d28"><path d="M 29 35 L 38 35 L 38 45 L 29 45 Z M 29 35 " clip-rule="nonzero"/></clipPath><clipPath id="5c3e2a4b36"><path d="M 29.1875 36.230469 L 37.507812 35.28125 L 38.449219 43.539062 L 30.128906 44.488281 Z M 29.1875 36.230469 " clip-rule="nonzero"/></clipPath><clipPath id="525a5acf4e"><path d="M 33.339844 35.753906 C 31.042969 36.015625 29.398438 38.078125 29.65625 40.359375 C 29.917969 42.636719 31.984375 44.273438 34.28125 44.011719 C 36.574219 43.75 38.222656 41.691406 37.960938 39.410156 C 37.699219 37.128906 35.632812 35.492188 33.339844 35.753906 Z M 33.339844 35.753906 " clip-rule="nonzero"/></clipPath><clipPath id="2dd7285078"><path d="M 0.160156 0.480469 L 9 0.480469 L 9 9.359375 L 0.160156 9.359375 Z M 0.160156 0.480469 " clip-rule="nonzero"/></clipPath><clipPath id="5ad1876fbb"><path d="M 0.1875 1.230469 L 8.507812 0.28125 L 9.449219 8.539062 L 1.128906 9.488281 Z M 0.1875 1.230469 " clip-rule="nonzero"/></clipPath><clipPath id="84cc31f0cd"><path d="M 4.339844 0.753906 C 2.042969 1.015625 0.398438 3.078125 0.65625 5.359375 C 0.917969 7.636719 2.984375 9.273438 5.28125 9.011719 C 7.574219 8.75 9.222656 6.691406 8.960938 4.410156 C 8.699219 2.128906 6.632812 0.492188 4.339844 0.753906 Z M 4.339844 0.753906 " clip-rule="nonzero"/></clipPath><clipPath id="c3c08bf3c3"><rect x="0" width="9" y="0" height="10"/></clipPath><clipPath id="a7bdae4c4e"><rect x="0" width="94" y="0" height="95"/></clipPath><clipPath id="47a3f453b5"><path d="M 89 107 L 124 107 L 124 136 L 89 136 Z M 89 107 " clip-rule="nonzero"/></clipPath><clipPath id="fed1ab4e85"><path d="M 89.898438 127.054688 L 121.121094 107.671875 L 130.617188 122.964844 L 99.394531 142.347656 Z M 89.898438 127.054688 " clip-rule="nonzero"/></clipPath><clipPath id="b59ad65798"><path d="M 89.898438 127.054688 L 121.121094 107.671875 L 130.617188 122.964844 L 99.394531 142.347656 Z M 89.898438 127.054688 " clip-rule="nonzero"/></clipPath><clipPath id="440ee171c3"><path d="M 89.898438 127.054688 L 121.121094 107.671875 L 130.617188 122.964844 L 99.394531 142.347656 Z M 89.898438 127.054688 " clip-rule="nonzero"/></clipPath><clipPath id="aee3133fd2"><path d="M 52 126 L 94 126 L 94 162 L 52 162 Z M 52 126 " clip-rule="nonzero"/></clipPath><clipPath id="945b337816"><path d="M 52.144531 150.875 L 90.199219 126.855469 L 102.207031 145.882812 L 64.152344 169.902344 Z M 52.144531 150.875 " clip-rule="nonzero"/></clipPath><clipPath id="6818e7b5a4"><path d="M 52.144531 150.875 L 90.199219 126.855469 L 102.207031 145.882812 L 64.152344 169.902344 Z M 52.144531 150.875 " clip-rule="nonzero"/></clipPath><clipPath id="1493be3cd7"><path d="M 52.144531 150.875 L 90.199219 126.855469 L 102.207031 145.882812 L 64.152344 169.902344 Z M 52.144531 150.875 " clip-rule="nonzero"/></clipPath></defs><g clip-path="url(#57062fa5e6)"><g clip-path="url(#03fd91f3d7)"><g transform="matrix(1, 0, 0, 1, 73, 102)"><g clip-path="url(#d5a425d9ff)"><g clip-path="url(#ca3fc25fd8)"><g clip-path="url(#a331ecbadc)"><path fill="#ffffff" d="M 0.191406 152.328125 L 0.191406 0.863281 L 91 0.863281 L 91 152.328125 Z M 0.191406 152.328125 " fill-opacity="1" fill-rule="nonzero"/></g></g></g></g></g></g><g clip-path="url(#3cc1e54ffb)"><g clip-path="url(#12262bbd41)"><g transform="matrix(1, 0, 0, 1, 207, 102)"><g clip-path="url(#cc4bc738f1)"><g clip-path="url(#0f465a10fc)"><g clip-path="url(#d7ed80d3f4)"><path fill="#ffffff" d="M 91.136719 0.792969 L 91.136719 152.253906 L 0.332031 152.253906 L 0.332031 0.792969 Z M 91.136719 0.792969 " fill-opacity="1" fill-rule="nonzero"/></g></g></g></g></g></g><g clip-path="url(#40ecaaf286)"><g transform="matrix(1, 0, 0, 1, 163, 102)"><g clip-path="url(#9af117f154)"><g clip-path="url(#33608bec17)"><path fill="#ffffff" d="M 0.996094 0.796875 L 44.335938 0.796875 L 44.335938 152.320312 L 0.996094 152.320312 Z M 0.996094 0.796875 " fill-opacity="1" fill-rule="nonzero"/></g></g></g></g><g transform="matrix(1, 0, 0, 1, 6, 12)"><g clip-path="url(#3dee2e68e1)"><g fill="#ffffff" fill-opacity="1"><g transform="translate(0.721249, 246.65288)"><g><path d="M 138.484375 -166 L 138.484375 -146.71875 L 59.125 -80 L 138.484375 -11.0625 L 138.484375 8.859375 L 2.84375 -80.625 Z M 138.484375 -166 "/></g></g></g></g></g><g transform="matrix(1, 0, 0, 1, 226, 25)"><g clip-path="url(#a0e63011f0)"><g fill="#ffffff" fill-opacity="1"><g transform="translate(142.270167, 75.024161)"><g><path d="M -138.484375 166 L -138.484375 146.71875 L -59.125 80 L -138.484375 11.0625 L -138.484375 -8.859375 L -2.84375 80.625 Z M -138.484375 166 "/></g></g></g></g></g><g clip-path="url(#bbbd49995e)"><g clip-path="url(#ae1a78e3d8)"><g transform="matrix(1, 0, 0, 1, 136, 150)"><g clip-path="url(#fab7fa45f1)"><g clip-path="url(#e166985df3)"><g clip-path="url(#ebf42afecc)"><path fill="#ffffff" d="M 0.480469 0.335938 L 45.804688 0.335938 L 45.804688 45.484375 L 0.480469 45.484375 Z M 0.480469 0.335938 " fill-opacity="1" fill-rule="nonzero"/></g></g></g></g></g></g><g clip-path="url(#5bbef5fbcd)"><g clip-path="url(#259e22ab95)"><path stroke-linecap="butt" transform="matrix(0.75, 0, 0, 0.75, 136.480016, 150.33588)" fill="none" stroke-linejoin="miter" d="M 30.266229 0.0000770294 C 13.552688 0.0000770294 0.000604283 13.474035 0.000604283 30.093827 C 0.000604283 46.713619 13.552688 60.187577 30.266229 60.187577 C 46.979771 60.187577 60.526646 46.713619 60.526646 30.093827 C 60.526646 13.474035 46.979771 0.0000770294 30.266229 0.0000770294 Z M 30.266229 0.0000770294 " stroke="#000000" stroke-width="10" stroke-opacity="1" stroke-miterlimit="4"/></g></g><g transform="matrix(1, 0, 0, 1, 138, 158)"><g clip-path="url(#9a5e5fb2a6)"><g clip-path="url(#783b035977)"><g clip-path="url(#c12200f269)"><g transform="matrix(1, 0, 0, 1, 0.000000000000028422, 0)"><g clip-path="url(#df0b4d7c8c)"><g clip-path="url(#764dc13d8e)"><g clip-path="url(#a4fc69753e)"><path fill="#000000" d="M 0.710938 0.996094 L 20.648438 0.996094 L 20.648438 20.851562 L 0.710938 20.851562 Z M 0.710938 0.996094 " fill-opacity="1" fill-rule="nonzero"/></g></g></g></g></g></g><g clip-path="url(#b43529a512)"><g clip-path="url(#8ee5f034c8)"><g transform="matrix(1, 0, 0, 1, 3, 4)"><g clip-path="url(#e8081141d6)"><g clip-path="url(#b88f9627f6)"><g clip-path="url(#98ef6ec243)"><path fill="#ffffff" d="M 0.199219 0.929688 L 8.542969 0.929688 L 8.542969 9.242188 L 0.199219 9.242188 Z M 0.199219 0.929688 " fill-opacity="1" fill-rule="nonzero"/></g></g></g></g></g></g></g></g><g transform="matrix(1, 0, 0, 1, 171, 109)"><g clip-path="url(#a7bdae4c4e)"><g clip-path="url(#66562d7d5a)"><g clip-path="url(#0c166ed4bc)"><g transform="matrix(1, 0, 0, 1, 24, 24)"><g clip-path="url(#732420fd70)"><g clip-path="url(#3e65e3bcab)"><g clip-path="url(#1c70714ab2)"><path fill="#ffffff" d="M 0.601562 0.703125 L 45.925781 0.703125 L 45.925781 45.851562 L 0.601562 45.851562 Z M 0.601562 0.703125 " fill-opacity="1" fill-rule="nonzero"/></g></g></g></g></g></g><g clip-path="url(#ffd291a96d)"><g clip-path="url(#8efd9dc505)"><path stroke-linecap="butt" transform="matrix(0.965941, 0, 0, 0.965941, 24.599816, 24.703092)" fill="none" stroke-linejoin="miter" d="M 23.501388 0.000034474 C 10.520205 0.000034474 0.00180811 10.461816 0.00180811 23.366163 C 0.00180811 36.27051 10.520205 46.736335 23.501388 46.736335 C 36.478526 46.736335 46.996924 36.27051 46.996924 23.366163 C 46.996924 10.461816 36.478526 0.000034474 23.501388 0.000034474 Z M 23.501388 0.000034474 " stroke="#000000" stroke-width="7.764445" stroke-opacity="1" stroke-miterlimit="4"/></g></g><g clip-path="url(#8fa20d2a95)"><g clip-path="url(#e6289949fe)"><g clip-path="url(#9c6a0f7ee4)"><g transform="matrix(1, 0, 0, 1, 27, 31)"><g clip-path="url(#c09ec31903)"><g clip-path="url(#128efcb4f0)"><g clip-path="url(#a346ac6736)"><g clip-path="url(#29702745ae)"><path fill="#000000" d="M -0.730469 1.601562 L 19.078125 -0.65625 L 21.328125 19.074219 L 1.519531 21.332031 Z M -0.730469 1.601562 " fill-opacity="1" fill-rule="nonzero"/></g></g></g></g></g></g></g></g><g clip-path="url(#432ce53d28)"><g clip-path="url(#5c3e2a4b36)"><g clip-path="url(#525a5acf4e)"><g transform="matrix(1, 0, 0, 1, 29, 35)"><g clip-path="url(#c3c08bf3c3)"><g clip-path="url(#2dd7285078)"><g clip-path="url(#5ad1876fbb)"><g clip-path="url(#84cc31f0cd)"><path fill="#ffffff" d="M 0.1875 1.230469 L 8.476562 0.285156 L 9.417969 8.542969 L 1.128906 9.488281 Z M 0.1875 1.230469 " fill-opacity="1" fill-rule="nonzero"/></g></g></g></g></g></g></g></g></g></g><g clip-path="url(#47a3f453b5)"><g clip-path="url(#fed1ab4e85)"><g clip-path="url(#b59ad65798)"><g clip-path="url(#440ee171c3)"><path fill="#000000" d="M 121.046875 107.714844 L 121.089844 107.789062 C 122.367188 109.84375 123.195312 112.089844 123.546875 114.472656 C 123.890625 116.769531 123.78125 119.09375 123.222656 121.375 C 122.664062 123.660156 121.683594 125.789062 120.308594 127.703125 C 118.886719 129.6875 117.101562 131.351562 115.003906 132.65625 C 112.90625 133.957031 110.621094 134.816406 108.214844 135.214844 C 105.886719 135.59375 103.546875 135.53125 101.25 135.019531 C 98.957031 134.503906 96.824219 133.574219 94.917969 132.246094 C 92.941406 130.875 91.292969 129.136719 90.019531 127.082031 L 89.972656 127.007812 Z M 121.046875 107.714844 " fill-opacity="1" fill-rule="nonzero"/></g></g></g></g><g clip-path="url(#aee3133fd2)"><g clip-path="url(#945b337816)"><g clip-path="url(#6818e7b5a4)"><g clip-path="url(#1493be3cd7)"><path fill="#000000" d="M 90.109375 126.914062 L 90.164062 127.003906 C 91.777344 129.558594 92.84375 132.355469 93.328125 135.3125 C 93.796875 138.171875 93.710938 141.058594 93.070312 143.894531 C 92.429688 146.730469 91.265625 149.375 89.613281 151.75 C 87.898438 154.210938 85.734375 156.277344 83.179688 157.890625 C 80.625 159.503906 77.828125 160.570312 74.871094 161.054688 C 72.011719 161.523438 69.125 161.4375 66.289062 160.796875 C 63.453125 160.15625 60.808594 158.992188 58.429688 157.339844 C 55.96875 155.628906 53.90625 153.464844 52.289062 150.90625 L 52.234375 150.816406 Z M 90.109375 126.914062 " fill-opacity="1" fill-rule="nonzero"/></g></g></g></g></svg>