<svg xmlns="http://www.w3.org/2000/svg" xmlns:xlink="http://www.w3.org/1999/xlink" width="500" zoomAndPan="magnify" viewBox="0 0 375 374.999991" height="500" preserveAspectRatio="xMidYMid meet" version="1.0"><defs><g/><clipPath id="4f550891f5"><path d="M 73.191406 102.507812 L 164 102.507812 L 164 254.328125 L 73.191406 254.328125 Z M 73.191406 102.507812 " clip-rule="nonzero"/></clipPath><clipPath id="99012ee8ba"><path d="M 73.191406 178.558594 L 164 102.789062 L 164 254.328125 Z M 73.191406 178.558594 " clip-rule="nonzero"/></clipPath><clipPath id="e576dfa916"><path d="M 0.191406 0.71875 L 91 0.71875 L 91 152.328125 L 0.191406 152.328125 Z M 0.191406 0.71875 " clip-rule="nonzero"/></clipPath><clipPath id="b205b51a1a"><path d="M 0.191406 76.558594 L 91 0.789062 L 91 152.328125 Z M 0.191406 76.558594 " clip-rule="nonzero"/></clipPath><clipPath id="f550caade5"><rect x="0" width="91" y="0" height="153"/></clipPath><clipPath id="9fed9cd47a"><path d="M 207.332031 102.792969 L 298.136719 102.792969 L 298.136719 254.609375 L 207.332031 254.609375 Z M 207.332031 102.792969 " clip-rule="nonzero"/></clipPath><clipPath id="5c577d2356"><path d="M 298.136719 178.5625 L 207.332031 254.332031 L 207.332031 102.792969 Z M 298.136719 178.5625 " clip-rule="nonzero"/></clipPath><clipPath id="7e6292a361"><path d="M 0.332031 0.792969 L 91.136719 0.792969 L 91.136719 152.398438 L 0.332031 152.398438 Z M 0.332031 0.792969 " clip-rule="nonzero"/></clipPath><clipPath id="decc860ae3"><path d="M 91.136719 76.5625 L 0.332031 152.332031 L 0.332031 0.792969 Z M 91.136719 76.5625 " clip-rule="nonzero"/></clipPath><clipPath id="3f1ed3d7c5"><rect x="0" width="92" y="0" height="153"/></clipPath><clipPath id="34dcf1575c"><path d="M 163.996094 102.796875 L 207.335938 102.796875 L 207.335938 254.335938 L 163.996094 254.335938 Z M 163.996094 102.796875 " clip-rule="nonzero"/></clipPath><clipPath id="565db1c5af"><path d="M 0.996094 0.796875 L 44.335938 0.796875 L 44.335938 152.335938 L 0.996094 152.335938 Z M 0.996094 0.796875 " clip-rule="nonzero"/></clipPath><clipPath id="30f4af63a1"><rect x="0" width="45" y="0" height="153"/></clipPath><clipPath id="c61128f173"><rect x="0" width="143" y="0" height="322"/></clipPath><clipPath id="1b2a07ef93"><rect x="0" width="143" y="0" height="322"/></clipPath><clipPath id="31f0f03516"><path d="M 136.480469 150.335938 L 181.980469 150.335938 L 181.980469 195.484375 L 136.480469 195.484375 Z M 136.480469 150.335938 " clip-rule="nonzero"/></clipPath><clipPath id="22f95cce19"><path d="M 159.183594 150.335938 C 146.644531 150.335938 136.480469 160.441406 136.480469 172.910156 C 136.480469 185.378906 146.644531 195.484375 159.183594 195.484375 C 171.71875 195.484375 181.882812 185.378906 181.882812 172.910156 C 181.882812 160.441406 171.71875 150.335938 159.183594 150.335938 Z M 159.183594 150.335938 " clip-rule="nonzero"/></clipPath><clipPath id="50567f789a"><path d="M 0.480469 0.335938 L 45.921875 0.335938 L 45.921875 45.484375 L 0.480469 45.484375 Z M 0.480469 0.335938 " clip-rule="nonzero"/></clipPath><clipPath id="7edca68ebf"><path d="M 23.183594 0.335938 C 10.644531 0.335938 0.480469 10.441406 0.480469 22.910156 C 0.480469 35.378906 10.644531 45.484375 23.183594 45.484375 C 35.71875 45.484375 45.882812 35.378906 45.882812 22.910156 C 45.882812 10.441406 35.71875 0.335938 23.183594 0.335938 Z M 23.183594 0.335938 " clip-rule="nonzero"/></clipPath><clipPath id="68163feeba"><rect x="0" width="46" y="0" height="46"/></clipPath><clipPath id="1fa938242d"><path d="M 136.480469 150.335938 L 182 150.335938 L 182 195.335938 L 136.480469 195.335938 Z M 136.480469 150.335938 " clip-rule="nonzero"/></clipPath><clipPath id="7183d74b92"><path d="M 159.179688 150.335938 C 146.644531 150.335938 136.480469 160.441406 136.480469 172.90625 C 136.480469 185.371094 146.644531 195.476562 159.179688 195.476562 C 171.714844 195.476562 181.875 185.371094 181.875 172.90625 C 181.875 160.441406 171.714844 150.335938 159.179688 150.335938 Z M 159.179688 150.335938 " clip-rule="nonzero"/></clipPath><clipPath id="4cbd33042c"><path d="M 0.710938 0.996094 L 20.726562 0.996094 L 20.726562 20.851562 L 0.710938 20.851562 Z M 0.710938 0.996094 " clip-rule="nonzero"/></clipPath><clipPath id="48cea84c21"><path d="M 10.699219 0.996094 C 5.183594 0.996094 0.710938 5.441406 0.710938 10.921875 C 0.710938 16.40625 5.183594 20.851562 10.699219 20.851562 C 16.210938 20.851562 20.683594 16.40625 20.683594 10.921875 C 20.683594 5.441406 16.210938 0.996094 10.699219 0.996094 Z M 10.699219 0.996094 " clip-rule="nonzero"/></clipPath><clipPath id="a70aacfac7"><path d="M 0.710938 0.996094 L 20.726562 0.996094 L 20.726562 20.851562 L 0.710938 20.851562 Z M 0.710938 0.996094 " clip-rule="nonzero"/></clipPath><clipPath id="37db303888"><path d="M 10.699219 0.996094 C 5.183594 0.996094 0.710938 5.441406 0.710938 10.921875 C 0.710938 16.40625 5.183594 20.851562 10.699219 20.851562 C 16.210938 20.851562 20.683594 16.40625 20.683594 10.921875 C 20.683594 5.441406 16.210938 0.996094 10.699219 0.996094 Z M 10.699219 0.996094 " clip-rule="nonzero"/></clipPath><clipPath id="b593f918e2"><rect x="0" width="21" y="0" height="21"/></clipPath><clipPath id="76264f5296"><path d="M 3.199219 4.929688 L 11.574219 4.929688 L 11.574219 13.242188 L 3.199219 13.242188 Z M 3.199219 4.929688 " clip-rule="nonzero"/></clipPath><clipPath id="4b10e0b210"><path d="M 7.375 4.929688 C 5.070312 4.929688 3.199219 6.789062 3.199219 9.085938 C 3.199219 11.378906 5.070312 13.242188 7.375 13.242188 C 9.683594 13.242188 11.554688 11.378906 11.554688 9.085938 C 11.554688 6.789062 9.683594 4.929688 7.375 4.929688 Z M 7.375 4.929688 " clip-rule="nonzero"/></clipPath><clipPath id="1ed5149734"><path d="M 0.199219 0.929688 L 8.574219 0.929688 L 8.574219 9.242188 L 0.199219 9.242188 Z M 0.199219 0.929688 " clip-rule="nonzero"/></clipPath><clipPath id="2e879512c2"><path d="M 4.375 0.929688 C 2.070312 0.929688 0.199219 2.789062 0.199219 5.085938 C 0.199219 7.378906 2.070312 9.242188 4.375 9.242188 C 6.683594 9.242188 8.554688 7.378906 8.554688 5.085938 C 8.554688 2.789062 6.683594 0.929688 4.375 0.929688 Z M 4.375 0.929688 " clip-rule="nonzero"/></clipPath><clipPath id="d6b7999aae"><rect x="0" width="9" y="0" height="10"/></clipPath><clipPath id="55c8f5bf8c"><rect x="0" width="21" y="0" height="22"/></clipPath><clipPath id="3ffd1f9723"><path d="M 195.601562 133.703125 L 241.101562 133.703125 L 241.101562 178.851562 L 195.601562 178.851562 Z M 195.601562 133.703125 " clip-rule="nonzero"/></clipPath><clipPath id="42ca5e65e8"><path d="M 218.300781 133.703125 C 205.761719 133.703125 195.601562 143.808594 195.601562 156.277344 C 195.601562 168.746094 205.761719 178.851562 218.300781 178.851562 C 230.839844 178.851562 241.003906 168.746094 241.003906 156.277344 C 241.003906 143.808594 230.839844 133.703125 218.300781 133.703125 Z M 218.300781 133.703125 " clip-rule="nonzero"/></clipPath><clipPath id="0761823abe"><path d="M 0.601562 0.703125 L 46 0.703125 L 46 45.851562 L 0.601562 45.851562 Z M 0.601562 0.703125 " clip-rule="nonzero"/></clipPath><clipPath id="3875d90d92"><path d="M 23.300781 0.703125 C 10.761719 0.703125 0.601562 10.808594 0.601562 23.277344 C 0.601562 35.746094 10.761719 45.851562 23.300781 45.851562 C 35.839844 45.851562 46.003906 35.746094 46.003906 23.277344 C 46.003906 10.808594 35.839844 0.703125 23.300781 0.703125 Z M 23.300781 0.703125 " clip-rule="nonzero"/></clipPath><clipPath id="c0f6a86497"><rect x="0" width="47" y="0" height="46"/></clipPath><clipPath id="917553f520"><path d="M 195.601562 133.703125 L 241 133.703125 L 241 178.703125 L 195.601562 178.703125 Z M 195.601562 133.703125 " clip-rule="nonzero"/></clipPath><clipPath id="aab5de1dcc"><path d="M 218.300781 133.703125 C 205.761719 133.703125 195.601562 143.808594 195.601562 156.273438 C 195.601562 168.738281 205.761719 178.84375 218.300781 178.84375 C 230.835938 178.84375 240.996094 168.738281 240.996094 156.273438 C 240.996094 143.808594 230.835938 133.703125 218.300781 133.703125 Z M 218.300781 133.703125 " clip-rule="nonzero"/></clipPath><clipPath id="76910ad237"><path d="M 198 140 L 219 140 L 219 161 L 198 161 Z M 198 140 " clip-rule="nonzero"/></clipPath><clipPath id="714c149b4c"><path d="M 197.269531 141.601562 L 217.15625 139.335938 L 219.40625 159.066406 L 199.519531 161.332031 Z M 197.269531 141.601562 " clip-rule="nonzero"/></clipPath><clipPath id="6370e5be5a"><path d="M 207.191406 140.46875 C 201.710938 141.09375 197.773438 146.019531 198.394531 151.464844 C 199.015625 156.914062 203.960938 160.824219 209.441406 160.203125 C 214.921875 159.578125 218.859375 154.652344 218.238281 149.203125 C 217.617188 143.757812 212.671875 139.84375 207.191406 140.46875 Z M 207.191406 140.46875 " clip-rule="nonzero"/></clipPath><clipPath id="2b89886af2"><path d="M 0 0 L 20.878906 0 L 20.878906 21 L 0 21 Z M 0 0 " clip-rule="nonzero"/></clipPath><clipPath id="d0629f3ccc"><path d="M -0.730469 1.601562 L 19.15625 -0.664062 L 21.40625 19.066406 L 1.519531 21.332031 Z M -0.730469 1.601562 " clip-rule="nonzero"/></clipPath><clipPath id="ca653139df"><path d="M 9.191406 0.46875 C 3.710938 1.09375 -0.226562 6.019531 0.394531 11.464844 C 1.015625 16.914062 5.960938 20.824219 11.441406 20.203125 C 16.921875 19.578125 20.859375 14.652344 20.238281 9.203125 C 19.617188 3.757812 14.671875 -0.15625 9.191406 0.46875 Z M 9.191406 0.46875 " clip-rule="nonzero"/></clipPath><clipPath id="aae9299e80"><rect x="0" width="21" y="0" height="21"/></clipPath><clipPath id="52f002c6f0"><path d="M 200 144 L 209 144 L 209 154 L 200 154 Z M 200 144 " clip-rule="nonzero"/></clipPath><clipPath id="362a84da31"><path d="M 200.183594 145.230469 L 208.507812 144.28125 L 209.449219 152.539062 L 201.125 153.488281 Z M 200.183594 145.230469 " clip-rule="nonzero"/></clipPath><clipPath id="db2a9b0842"><path d="M 204.335938 144.753906 C 202.042969 145.015625 200.394531 147.078125 200.65625 149.359375 C 200.917969 151.636719 202.984375 153.273438 205.277344 153.015625 C 207.570312 152.753906 209.21875 150.691406 208.960938 148.410156 C 208.699219 146.132812 206.628906 144.496094 204.335938 144.753906 Z M 204.335938 144.753906 " clip-rule="nonzero"/></clipPath><clipPath id="a34b5186b5"><path d="M 0.160156 0.480469 L 9 0.480469 L 9 9.359375 L 0.160156 9.359375 Z M 0.160156 0.480469 " clip-rule="nonzero"/></clipPath><clipPath id="976162c58f"><path d="M 0.183594 1.230469 L 8.507812 0.28125 L 9.449219 8.539062 L 1.125 9.488281 Z M 0.183594 1.230469 " clip-rule="nonzero"/></clipPath><clipPath id="a600f47aba"><path d="M 4.335938 0.753906 C 2.042969 1.015625 0.394531 3.078125 0.65625 5.359375 C 0.917969 7.636719 2.984375 9.273438 5.277344 9.015625 C 7.570312 8.753906 9.21875 6.691406 8.960938 4.410156 C 8.699219 2.132812 6.628906 0.496094 4.335938 0.753906 Z M 4.335938 0.753906 " clip-rule="nonzero"/></clipPath><clipPath id="54a3d9406a"><rect x="0" width="9" y="0" height="10"/></clipPath><clipPath id="b0e18ac8f3"><path d="M 89 107 L 124 107 L 124 136 L 89 136 Z M 89 107 " clip-rule="nonzero"/></clipPath><clipPath id="1fcf29ce1e"><path d="M 89.898438 127.054688 L 121.121094 107.671875 L 130.617188 122.964844 L 99.394531 142.347656 Z M 89.898438 127.054688 " clip-rule="nonzero"/></clipPath><clipPath id="65a1a93bb2"><path d="M 89.898438 127.054688 L 121.121094 107.671875 L 130.617188 122.964844 L 99.394531 142.347656 Z M 89.898438 127.054688 " clip-rule="nonzero"/></clipPath><clipPath id="36574c8a83"><path d="M 52 126 L 94 126 L 94 162 L 52 162 Z M 52 126 " clip-rule="nonzero"/></clipPath><clipPath id="506c498adf"><path d="M 52.144531 150.875 L 90.199219 126.855469 L 102.207031 145.882812 L 64.152344 169.902344 Z M 52.144531 150.875 " clip-rule="nonzero"/></clipPath><clipPath id="0749ca76be"><path d="M 52.144531 150.875 L 90.199219 126.855469 L 102.207031 145.882812 L 64.152344 169.902344 Z M 52.144531 150.875 " clip-rule="nonzero"/></clipPath></defs><g clip-path="url(#4f550891f5)"><g clip-path="url(#99012ee8ba)"><g transform="matrix(1, 0, 0, 1, 73, 102)"><g clip-path="url(#f550caade5)"><g clip-path="url(#e576dfa916)"><g clip-path="url(#b205b51a1a)"><path fill="#000000" d="M 0.191406 152.328125 L 0.191406 0.863281 L 91 0.863281 L 91 152.328125 Z M 0.191406 152.328125 " fill-opacity="1" fill-rule="nonzero"/></g></g></g></g></g></g><g clip-path="url(#9fed9cd47a)"><g clip-path="url(#5c577d2356)"><g transform="matrix(1, 0, 0, 1, 207, 102)"><g clip-path="url(#3f1ed3d7c5)"><g clip-path="url(#7e6292a361)"><g clip-path="url(#decc860ae3)"><path fill="#000000" d="M 91.136719 0.792969 L 91.136719 152.253906 L 0.332031 152.253906 L 0.332031 0.792969 Z M 91.136719 0.792969 " fill-opacity="1" fill-rule="nonzero"/></g></g></g></g></g></g><g clip-path="url(#34dcf1575c)"><g transform="matrix(1, 0, 0, 1, 163, 102)"><g clip-path="url(#30f4af63a1)"><g clip-path="url(#565db1c5af)"><path fill="#000000" d="M 0.996094 0.796875 L 44.335938 0.796875 L 44.335938 152.320312 L 0.996094 152.320312 Z M 0.996094 0.796875 " fill-opacity="1" fill-rule="nonzero"/></g></g></g></g><g transform="matrix(1, 0, 0, 1, 6, 12)"><g clip-path="url(#c61128f173)"><g fill="#000000" fill-opacity="1"><g transform="translate(0.721249, 246.652887)"><g><path d="M 138.484375 -166 L 138.484375 -146.71875 L 59.125 -80 L 138.484375 -11.0625 L 138.484375 8.859375 L 2.84375 -80.625 Z M 138.484375 -166 "/></g></g></g></g></g><g transform="matrix(1, 0, 0, 1, 226, 25)"><g clip-path="url(#1b2a07ef93)"><g fill="#000000" fill-opacity="1"><g transform="translate(142.270167, 75.02419)"><g><path d="M -138.484375 166 L -138.484375 146.71875 L -59.125 80 L -138.484375 11.0625 L -138.484375 -8.859375 L -2.84375 80.625 Z M -138.484375 166 "/></g></g></g></g></g><g clip-path="url(#31f0f03516)"><g clip-path="url(#22f95cce19)"><g transform="matrix(1, 0, 0, 1, 136, 150)"><g clip-path="url(#68163feeba)"><g clip-path="url(#50567f789a)"><g clip-path="url(#7edca68ebf)"><path fill="#ffffff" d="M 0.480469 0.335938 L 45.804688 0.335938 L 45.804688 45.484375 L 0.480469 45.484375 Z M 0.480469 0.335938 " fill-opacity="1" fill-rule="nonzero"/></g></g></g></g></g></g><g clip-path="url(#1fa938242d)"><g clip-path="url(#7183d74b92)"><path stroke-linecap="butt" transform="matrix(0.75, 0, 0, 0.75, 136.480016, 150.335909)" fill="none" stroke-linejoin="miter" d="M 30.266229 0.0000386294 C 13.552688 0.0000386294 0.000604283 13.473997 0.000604283 30.093789 C 0.000604283 46.71358 13.552688 60.187539 30.266229 60.187539 C 46.979771 60.187539 60.526646 46.71358 60.526646 30.093789 C 60.526646 13.473997 46.979771 0.0000386294 30.266229 0.0000386294 Z M 30.266229 0.0000386294 " stroke="#000000" stroke-width="10" stroke-opacity="1" stroke-miterlimit="4"/></g></g><g transform="matrix(1, 0, 0, 1, 138, 158)"><g clip-path="url(#55c8f5bf8c)"><g clip-path="url(#4cbd33042c)"><g clip-path="url(#48cea84c21)"><g transform="matrix(1, 0, 0, 1, 0.000000000000028422, 0)"><g clip-path="url(#b593f918e2)"><g clip-path="url(#a70aacfac7)"><g clip-path="url(#37db303888)"><path fill="#000000" d="M 0.710938 0.996094 L 20.648438 0.996094 L 20.648438 20.851562 L 0.710938 20.851562 Z M 0.710938 0.996094 " fill-opacity="1" fill-rule="nonzero"/></g></g></g></g></g></g><g clip-path="url(#76264f5296)"><g clip-path="url(#4b10e0b210)"><g transform="matrix(1, 0, 0, 1, 3, 4)"><g clip-path="url(#d6b7999aae)"><g clip-path="url(#1ed5149734)"><g clip-path="url(#2e879512c2)"><path fill="#ffffff" d="M 0.199219 0.929688 L 8.542969 0.929688 L 8.542969 9.242188 L 0.199219 9.242188 Z M 0.199219 0.929688 " fill-opacity="1" fill-rule="nonzero"/></g></g></g></g></g></g></g></g><g clip-path="url(#3ffd1f9723)"><g clip-path="url(#42ca5e65e8)"><g transform="matrix(1, 0, 0, 1, 195, 133)"><g clip-path="url(#c0f6a86497)"><g clip-path="url(#0761823abe)"><g clip-path="url(#3875d90d92)"><path fill="#ffffff" d="M 0.601562 0.703125 L 45.925781 0.703125 L 45.925781 45.851562 L 0.601562 45.851562 Z M 0.601562 0.703125 " fill-opacity="1" fill-rule="nonzero"/></g></g></g></g></g></g><g clip-path="url(#917553f520)"><g clip-path="url(#aab5de1dcc)"><path stroke-linecap="butt" transform="matrix(0.75, 0.000000000000000023, -0.000000000000000023, 0.75, 195.599713, 133.70343)" fill="none" stroke-linejoin="miter" d="M 30.268091 -0.00040616 C 13.549341 -0.00040616 0.00246566 13.473552 0.00246566 30.093344 C 0.00246566 46.713136 13.549341 60.187094 30.268091 60.187094 C 46.981632 60.187094 60.528507 46.713136 60.528507 30.093344 C 60.528507 13.473552 46.981632 -0.00040616 30.268091 -0.00040616 Z M 30.268091 -0.00040616 " stroke="#000000" stroke-width="10" stroke-opacity="1" stroke-miterlimit="4"/></g></g><g clip-path="url(#76910ad237)"><g clip-path="url(#714c149b4c)"><g clip-path="url(#6370e5be5a)"><g transform="matrix(1, 0, 0, 1, 198, 140)"><g clip-path="url(#aae9299e80)"><g clip-path="url(#2b89886af2)"><g clip-path="url(#d0629f3ccc)"><g clip-path="url(#ca653139df)"><path fill="#000000" d="M -0.730469 1.601562 L 19.078125 -0.65625 L 21.328125 19.074219 L 1.519531 21.332031 Z M -0.730469 1.601562 " fill-opacity="1" fill-rule="nonzero"/></g></g></g></g></g></g></g></g><g clip-path="url(#52f002c6f0)"><g clip-path="url(#362a84da31)"><g clip-path="url(#db2a9b0842)"><g transform="matrix(1, 0, 0, 1, 200, 144)"><g clip-path="url(#54a3d9406a)"><g clip-path="url(#a34b5186b5)"><g clip-path="url(#976162c58f)"><g clip-path="url(#a600f47aba)"><path fill="#ffffff" d="M 0.183594 1.230469 L 8.476562 0.285156 L 9.417969 8.542969 L 1.125 9.488281 Z M 0.183594 1.230469 " fill-opacity="1" fill-rule="nonzero"/></g></g></g></g></g></g></g></g><g clip-path="url(#b0e18ac8f3)"><g clip-path="url(#1fcf29ce1e)"><g clip-path="url(#65a1a93bb2)"><path fill="#ffffff" d="M 120.867188 107.828125 L 120.914062 107.902344 C 122.207031 109.984375 123.054688 112.261719 123.433594 114.667969 C 123.796875 116.988281 123.707031 119.332031 123.171875 121.632812 C 122.632812 123.933594 121.671875 126.070312 120.316406 127.992188 C 118.910156 129.980469 117.140625 131.644531 115.058594 132.9375 C 112.972656 134.234375 110.695312 135.082031 108.289062 135.457031 C 105.96875 135.824219 103.625 135.734375 101.324219 135.195312 C 99.023438 134.660156 96.886719 133.699219 94.964844 132.339844 C 92.976562 130.9375 91.3125 129.167969 90.019531 127.082031 L 89.972656 127.007812 Z M 120.867188 107.828125 " fill-opacity="1" fill-rule="nonzero"/></g></g></g><g clip-path="url(#36574c8a83)"><g clip-path="url(#506c498adf)"><g clip-path="url(#0749ca76be)"><path fill="#ffffff" d="M 90.207031 126.851562 L 90.261719 126.941406 C 91.882812 129.503906 92.949219 132.308594 93.4375 135.273438 C 93.90625 138.136719 93.820312 141.03125 93.175781 143.875 C 92.53125 146.71875 91.367188 149.371094 89.710938 151.753906 C 87.992188 154.222656 85.824219 156.292969 83.261719 157.910156 C 80.699219 159.527344 77.894531 160.59375 74.929688 161.082031 C 72.0625 161.554688 69.167969 161.464844 66.324219 160.824219 C 63.480469 160.179688 60.832031 159.011719 58.449219 157.355469 C 55.980469 155.640625 53.910156 153.46875 52.292969 150.90625 L 52.234375 150.816406 Z M 90.207031 126.851562 " fill-opacity="1" fill-rule="nonzero"/></g></g></g></svg>