<svg xmlns="http://www.w3.org/2000/svg" xmlns:xlink="http://www.w3.org/1999/xlink" width="500" zoomAndPan="magnify" viewBox="0 0 375 374.999991" height="500" preserveAspectRatio="xMidYMid meet" version="1.0"><defs><g/><clipPath id="af6c4e8a1a"><path d="M 73.191406 102.507812 L 164 102.507812 L 164 254.328125 L 73.191406 254.328125 Z M 73.191406 102.507812 " clip-rule="nonzero"/></clipPath><clipPath id="0af73a197a"><path d="M 73.191406 178.558594 L 164 102.789062 L 164 254.328125 Z M 73.191406 178.558594 " clip-rule="nonzero"/></clipPath><clipPath id="ad98832fc7"><path d="M 0.191406 0.71875 L 91 0.71875 L 91 152.328125 L 0.191406 152.328125 Z M 0.191406 0.71875 " clip-rule="nonzero"/></clipPath><clipPath id="024b8ec004"><path d="M 0.191406 76.558594 L 91 0.789062 L 91 152.328125 Z M 0.191406 76.558594 " clip-rule="nonzero"/></clipPath><clipPath id="5995b6c755"><rect x="0" width="91" y="0" height="153"/></clipPath><clipPath id="edd91752e5"><path d="M 207.332031 102.792969 L 298.136719 102.792969 L 298.136719 254.609375 L 207.332031 254.609375 Z M 207.332031 102.792969 " clip-rule="nonzero"/></clipPath><clipPath id="f0c6df7881"><path d="M 298.136719 178.5625 L 207.332031 254.332031 L 207.332031 102.792969 Z M 298.136719 178.5625 " clip-rule="nonzero"/></clipPath><clipPath id="880d9aa0f2"><path d="M 0.332031 0.792969 L 91.136719 0.792969 L 91.136719 152.398438 L 0.332031 152.398438 Z M 0.332031 0.792969 " clip-rule="nonzero"/></clipPath><clipPath id="c86bcb9950"><path d="M 91.136719 76.5625 L 0.332031 152.332031 L 0.332031 0.792969 Z M 91.136719 76.5625 " clip-rule="nonzero"/></clipPath><clipPath id="b5ffe2d104"><rect x="0" width="92" y="0" height="153"/></clipPath><clipPath id="74585734b5"><path d="M 163.996094 102.796875 L 207.335938 102.796875 L 207.335938 254.335938 L 163.996094 254.335938 Z M 163.996094 102.796875 " clip-rule="nonzero"/></clipPath><clipPath id="2859f9951b"><path d="M 0.996094 0.796875 L 44.335938 0.796875 L 44.335938 152.335938 L 0.996094 152.335938 Z M 0.996094 0.796875 " clip-rule="nonzero"/></clipPath><clipPath id="5a9c5a779b"><rect x="0" width="45" y="0" height="153"/></clipPath><clipPath id="561385e9f3"><rect x="0" width="143" y="0" height="322"/></clipPath><clipPath id="c392d8a986"><path d="M 40.476562 121.363281 L 85.726562 121.363281 L 85.726562 166.613281 L 40.476562 166.613281 Z M 40.476562 121.363281 " clip-rule="nonzero"/></clipPath><clipPath id="cc243f6795"><path d="M 63.101562 121.363281 C 50.605469 121.363281 40.476562 131.496094 40.476562 143.988281 C 40.476562 156.484375 50.605469 166.613281 63.101562 166.613281 C 75.59375 166.613281 85.726562 156.484375 85.726562 143.988281 C 85.726562 131.496094 75.59375 121.363281 63.101562 121.363281 Z M 63.101562 121.363281 " clip-rule="nonzero"/></clipPath><clipPath id="090dcff741"><path d="M 0.476562 0.363281 L 45.726562 0.363281 L 45.726562 45.613281 L 0.476562 45.613281 Z M 0.476562 0.363281 " clip-rule="nonzero"/></clipPath><clipPath id="69a1b90d5a"><path d="M 23.101562 0.363281 C 10.605469 0.363281 0.476562 10.496094 0.476562 22.988281 C 0.476562 35.484375 10.605469 45.613281 23.101562 45.613281 C 35.59375 45.613281 45.726562 35.484375 45.726562 22.988281 C 45.726562 10.496094 35.59375 0.363281 23.101562 0.363281 Z M 23.101562 0.363281 " clip-rule="nonzero"/></clipPath><clipPath id="de477736c1"><rect x="0" width="46" y="0" height="46"/></clipPath><clipPath id="67f8743bc4"><path d="M 66.394531 94.238281 L 111.644531 94.238281 L 111.644531 139.488281 L 66.394531 139.488281 Z M 66.394531 94.238281 " clip-rule="nonzero"/></clipPath><clipPath id="13cb5bd4c5"><path d="M 89.019531 94.238281 C 76.523438 94.238281 66.394531 104.367188 66.394531 116.863281 C 66.394531 129.355469 76.523438 139.488281 89.019531 139.488281 C 101.515625 139.488281 111.644531 129.355469 111.644531 116.863281 C 111.644531 104.367188 101.515625 94.238281 89.019531 94.238281 Z M 89.019531 94.238281 " clip-rule="nonzero"/></clipPath><clipPath id="5efd3a619b"><path d="M 0.394531 0.238281 L 45.644531 0.238281 L 45.644531 45.488281 L 0.394531 45.488281 Z M 0.394531 0.238281 " clip-rule="nonzero"/></clipPath><clipPath id="31317f0797"><path d="M 23.019531 0.238281 C 10.523438 0.238281 0.394531 10.367188 0.394531 22.863281 C 0.394531 35.355469 10.523438 45.488281 23.019531 45.488281 C 35.515625 45.488281 45.644531 35.355469 45.644531 22.863281 C 45.644531 10.367188 35.515625 0.238281 23.019531 0.238281 Z M 23.019531 0.238281 " clip-rule="nonzero"/></clipPath><clipPath id="05708b526c"><rect x="0" width="46" y="0" height="46"/></clipPath><clipPath id="69f166fd35"><rect x="0" width="143" y="0" height="322"/></clipPath><clipPath id="c252d72dec"><path d="M 136.480469 150.335938 L 181.980469 150.335938 L 181.980469 195.484375 L 136.480469 195.484375 Z M 136.480469 150.335938 " clip-rule="nonzero"/></clipPath><clipPath id="bfde596313"><path d="M 159.183594 150.335938 C 146.644531 150.335938 136.480469 160.441406 136.480469 172.910156 C 136.480469 185.378906 146.644531 195.484375 159.183594 195.484375 C 171.71875 195.484375 181.882812 185.378906 181.882812 172.910156 C 181.882812 160.441406 171.71875 150.335938 159.183594 150.335938 Z M 159.183594 150.335938 " clip-rule="nonzero"/></clipPath><clipPath id="79101426d4"><path d="M 0.480469 0.335938 L 45.921875 0.335938 L 45.921875 45.484375 L 0.480469 45.484375 Z M 0.480469 0.335938 " clip-rule="nonzero"/></clipPath><clipPath id="e811c3c975"><path d="M 23.183594 0.335938 C 10.644531 0.335938 0.480469 10.441406 0.480469 22.910156 C 0.480469 35.378906 10.644531 45.484375 23.183594 45.484375 C 35.71875 45.484375 45.882812 35.378906 45.882812 22.910156 C 45.882812 10.441406 35.71875 0.335938 23.183594 0.335938 Z M 23.183594 0.335938 " clip-rule="nonzero"/></clipPath><clipPath id="b010e986e7"><rect x="0" width="46" y="0" height="46"/></clipPath><clipPath id="74efef6ccf"><path d="M 136.480469 150.335938 L 182 150.335938 L 182 195.335938 L 136.480469 195.335938 Z M 136.480469 150.335938 " clip-rule="nonzero"/></clipPath><clipPath id="ca4b3c9109"><path d="M 159.179688 150.335938 C 146.644531 150.335938 136.480469 160.441406 136.480469 172.90625 C 136.480469 185.371094 146.644531 195.476562 159.179688 195.476562 C 171.714844 195.476562 181.875 185.371094 181.875 172.90625 C 181.875 160.441406 171.714844 150.335938 159.179688 150.335938 Z M 159.179688 150.335938 " clip-rule="nonzero"/></clipPath><clipPath id="8aa070bf8f"><path d="M 0.710938 0.996094 L 20.726562 0.996094 L 20.726562 20.851562 L 0.710938 20.851562 Z M 0.710938 0.996094 " clip-rule="nonzero"/></clipPath><clipPath id="c2dec5d4b6"><path d="M 10.699219 0.996094 C 5.183594 0.996094 0.710938 5.441406 0.710938 10.921875 C 0.710938 16.40625 5.183594 20.851562 10.699219 20.851562 C 16.210938 20.851562 20.683594 16.40625 20.683594 10.921875 C 20.683594 5.441406 16.210938 0.996094 10.699219 0.996094 Z M 10.699219 0.996094 " clip-rule="nonzero"/></clipPath><clipPath id="00a0c3eef8"><path d="M 0.710938 0.996094 L 20.726562 0.996094 L 20.726562 20.851562 L 0.710938 20.851562 Z M 0.710938 0.996094 " clip-rule="nonzero"/></clipPath><clipPath id="d04e84f921"><path d="M 10.699219 0.996094 C 5.183594 0.996094 0.710938 5.441406 0.710938 10.921875 C 0.710938 16.40625 5.183594 20.851562 10.699219 20.851562 C 16.210938 20.851562 20.683594 16.40625 20.683594 10.921875 C 20.683594 5.441406 16.210938 0.996094 10.699219 0.996094 Z M 10.699219 0.996094 " clip-rule="nonzero"/></clipPath><clipPath id="75b6b4714d"><rect x="0" width="21" y="0" height="21"/></clipPath><clipPath id="1ee84610d9"><path d="M 3.199219 4.929688 L 11.574219 4.929688 L 11.574219 13.242188 L 3.199219 13.242188 Z M 3.199219 4.929688 " clip-rule="nonzero"/></clipPath><clipPath id="f438eab4b6"><path d="M 7.375 4.929688 C 5.070312 4.929688 3.199219 6.789062 3.199219 9.085938 C 3.199219 11.378906 5.070312 13.242188 7.375 13.242188 C 9.683594 13.242188 11.554688 11.378906 11.554688 9.085938 C 11.554688 6.789062 9.683594 4.929688 7.375 4.929688 Z M 7.375 4.929688 " clip-rule="nonzero"/></clipPath><clipPath id="e3b507cde1"><path d="M 0.199219 0.929688 L 8.574219 0.929688 L 8.574219 9.242188 L 0.199219 9.242188 Z M 0.199219 0.929688 " clip-rule="nonzero"/></clipPath><clipPath id="21d22f6a6a"><path d="M 4.375 0.929688 C 2.070312 0.929688 0.199219 2.789062 0.199219 5.085938 C 0.199219 7.378906 2.070312 9.242188 4.375 9.242188 C 6.683594 9.242188 8.554688 7.378906 8.554688 5.085938 C 8.554688 2.789062 6.683594 0.929688 4.375 0.929688 Z M 4.375 0.929688 " clip-rule="nonzero"/></clipPath><clipPath id="dd28d7fe68"><rect x="0" width="9" y="0" height="10"/></clipPath><clipPath id="4664cf5a32"><rect x="0" width="21" y="0" height="22"/></clipPath><clipPath id="21a768c036"><path d="M 24.601562 24.703125 L 70.101562 24.703125 L 70.101562 69.851562 L 24.601562 69.851562 Z M 24.601562 24.703125 " clip-rule="nonzero"/></clipPath><clipPath id="a9b26dec47"><path d="M 47.300781 24.703125 C 34.765625 24.703125 24.601562 34.808594 24.601562 47.277344 C 24.601562 59.746094 34.765625 69.851562 47.300781 69.851562 C 59.839844 69.851562 70.003906 59.746094 70.003906 47.277344 C 70.003906 34.808594 59.839844 24.703125 47.300781 24.703125 Z M 47.300781 24.703125 " clip-rule="nonzero"/></clipPath><clipPath id="ea2ccda33e"><path d="M 0.601562 0.703125 L 46 0.703125 L 46 45.851562 L 0.601562 45.851562 Z M 0.601562 0.703125 " clip-rule="nonzero"/></clipPath><clipPath id="7ab0521d9b"><path d="M 23.300781 0.703125 C 10.765625 0.703125 0.601562 10.808594 0.601562 23.277344 C 0.601562 35.746094 10.765625 45.851562 23.300781 45.851562 C 35.839844 45.851562 46.003906 35.746094 46.003906 23.277344 C 46.003906 10.808594 35.839844 0.703125 23.300781 0.703125 Z M 23.300781 0.703125 " clip-rule="nonzero"/></clipPath><clipPath id="87a13a76cd"><rect x="0" width="47" y="0" height="46"/></clipPath><clipPath id="1c90e8267e"><path d="M 24.601562 24.703125 L 70 24.703125 L 70 69.847656 L 24.601562 69.847656 Z M 24.601562 24.703125 " clip-rule="nonzero"/></clipPath><clipPath id="9158ad3294"><path d="M 47.300781 24.703125 C 34.761719 24.703125 24.601562 34.808594 24.601562 47.273438 C 24.601562 59.738281 34.761719 69.847656 47.300781 69.847656 C 59.835938 69.847656 69.996094 59.738281 69.996094 47.273438 C 69.996094 34.808594 59.835938 24.703125 47.300781 24.703125 Z M 47.300781 24.703125 " clip-rule="nonzero"/></clipPath><clipPath id="e2a8fad6fe"><path d="M 27 31 L 48 31 L 48 52 L 27 52 Z M 27 31 " clip-rule="nonzero"/></clipPath><clipPath id="1c0c796976"><path d="M 26.269531 32.601562 L 46.15625 30.332031 L 48.40625 50.066406 L 28.519531 52.332031 Z M 26.269531 32.601562 " clip-rule="nonzero"/></clipPath><clipPath id="af1505aa1b"><path d="M 36.191406 31.46875 C 30.714844 32.09375 26.773438 37.019531 27.394531 42.464844 C 28.015625 47.914062 32.960938 51.824219 38.441406 51.199219 C 43.921875 50.578125 47.859375 45.652344 47.238281 40.203125 C 46.617188 34.753906 41.671875 30.84375 36.191406 31.46875 Z M 36.191406 31.46875 " clip-rule="nonzero"/></clipPath><clipPath id="9edd56ab36"><path d="M 0 0 L 20.878906 0 L 20.878906 21 L 0 21 Z M 0 0 " clip-rule="nonzero"/></clipPath><clipPath id="8bf2e11576"><path d="M -0.730469 1.601562 L 19.15625 -0.667969 L 21.40625 19.066406 L 1.519531 21.332031 Z M -0.730469 1.601562 " clip-rule="nonzero"/></clipPath><clipPath id="07687c2b8c"><path d="M 9.191406 0.46875 C 3.714844 1.09375 -0.226562 6.019531 0.394531 11.464844 C 1.015625 16.914062 5.960938 20.824219 11.441406 20.199219 C 16.921875 19.578125 20.859375 14.652344 20.238281 9.203125 C 19.617188 3.753906 14.671875 -0.15625 9.191406 0.46875 Z M 9.191406 0.46875 " clip-rule="nonzero"/></clipPath><clipPath id="a31aff6724"><rect x="0" width="21" y="0" height="21"/></clipPath><clipPath id="3c89f2a823"><path d="M 29 35 L 38 35 L 38 45 L 29 45 Z M 29 35 " clip-rule="nonzero"/></clipPath><clipPath id="b477fcb08c"><path d="M 29.1875 36.230469 L 37.507812 35.28125 L 38.449219 43.539062 L 30.128906 44.488281 Z M 29.1875 36.230469 " clip-rule="nonzero"/></clipPath><clipPath id="4f267d705c"><path d="M 33.339844 35.753906 C 31.042969 36.015625 29.398438 38.078125 29.65625 40.359375 C 29.917969 42.636719 31.984375 44.273438 34.28125 44.011719 C 36.574219 43.75 38.222656 41.691406 37.960938 39.410156 C 37.699219 37.128906 35.632812 35.492188 33.339844 35.753906 Z M 33.339844 35.753906 " clip-rule="nonzero"/></clipPath><clipPath id="aebd4aebe9"><path d="M 0.160156 0.480469 L 9 0.480469 L 9 9.359375 L 0.160156 9.359375 Z M 0.160156 0.480469 " clip-rule="nonzero"/></clipPath><clipPath id="19f3bb004c"><path d="M 0.1875 1.230469 L 8.507812 0.28125 L 9.449219 8.539062 L 1.128906 9.488281 Z M 0.1875 1.230469 " clip-rule="nonzero"/></clipPath><clipPath id="d614bcd491"><path d="M 4.339844 0.753906 C 2.042969 1.015625 0.398438 3.078125 0.65625 5.359375 C 0.917969 7.636719 2.984375 9.273438 5.28125 9.011719 C 7.574219 8.75 9.222656 6.691406 8.960938 4.410156 C 8.699219 2.128906 6.632812 0.492188 4.339844 0.753906 Z M 4.339844 0.753906 " clip-rule="nonzero"/></clipPath><clipPath id="e021063429"><rect x="0" width="9" y="0" height="10"/></clipPath><clipPath id="a029209aa0"><rect x="0" width="94" y="0" height="95"/></clipPath></defs><g clip-path="url(#af6c4e8a1a)"><g clip-path="url(#0af73a197a)"><g transform="matrix(1, 0, 0, 1, 73, 102)"><g clip-path="url(#5995b6c755)"><g clip-path="url(#ad98832fc7)"><g clip-path="url(#024b8ec004)"><path fill="#ffffff" d="M 0.191406 152.328125 L 0.191406 0.863281 L 91 0.863281 L 91 152.328125 Z M 0.191406 152.328125 " fill-opacity="1" fill-rule="nonzero"/></g></g></g></g></g></g><g clip-path="url(#edd91752e5)"><g clip-path="url(#f0c6df7881)"><g transform="matrix(1, 0, 0, 1, 207, 102)"><g clip-path="url(#b5ffe2d104)"><g clip-path="url(#880d9aa0f2)"><g clip-path="url(#c86bcb9950)"><path fill="#ffffff" d="M 91.136719 0.792969 L 91.136719 152.253906 L 0.332031 152.253906 L 0.332031 0.792969 Z M 91.136719 0.792969 " fill-opacity="1" fill-rule="nonzero"/></g></g></g></g></g></g><g clip-path="url(#74585734b5)"><g transform="matrix(1, 0, 0, 1, 163, 102)"><g clip-path="url(#5a9c5a779b)"><g clip-path="url(#2859f9951b)"><path fill="#ffffff" d="M 0.996094 0.796875 L 44.335938 0.796875 L 44.335938 152.320312 L 0.996094 152.320312 Z M 0.996094 0.796875 " fill-opacity="1" fill-rule="nonzero"/></g></g></g></g><g transform="matrix(1, 0, 0, 1, 6, 12)"><g clip-path="url(#561385e9f3)"><g fill="#ffffff" fill-opacity="1"><g transform="translate(0.721249, 246.65288)"><g><path d="M 138.484375 -166 L 138.484375 -146.71875 L 59.125 -80 L 138.484375 -11.0625 L 138.484375 8.859375 L 2.84375 -80.625 Z M 138.484375 -166 "/></g></g></g></g></g><g clip-path="url(#c392d8a986)"><g clip-path="url(#cc243f6795)"><g transform="matrix(1, 0, 0, 1, 40, 121)"><g clip-path="url(#de477736c1)"><g clip-path="url(#090dcff741)"><g clip-path="url(#69a1b90d5a)"><path fill="#000000" d="M 0.476562 0.363281 L 45.726562 0.363281 L 45.726562 45.613281 L 0.476562 45.613281 Z M 0.476562 0.363281 " fill-opacity="1" fill-rule="nonzero"/></g></g></g></g></g></g><g clip-path="url(#67f8743bc4)"><g clip-path="url(#13cb5bd4c5)"><g transform="matrix(1, 0, 0, 1, 66, 94)"><g clip-path="url(#05708b526c)"><g clip-path="url(#5efd3a619b)"><g clip-path="url(#31317f0797)"><path fill="#000000" d="M 0.394531 0.238281 L 45.644531 0.238281 L 45.644531 45.488281 L 0.394531 45.488281 Z M 0.394531 0.238281 " fill-opacity="1" fill-rule="nonzero"/></g></g></g></g></g></g><g transform="matrix(1, 0, 0, 1, 226, 25)"><g clip-path="url(#69f166fd35)"><g fill="#ffffff" fill-opacity="1"><g transform="translate(142.270167, 75.024161)"><g><path d="M -138.484375 166 L -138.484375 146.71875 L -59.125 80 L -138.484375 11.0625 L -138.484375 -8.859375 L -2.84375 80.625 Z M -138.484375 166 "/></g></g></g></g></g><g clip-path="url(#c252d72dec)"><g clip-path="url(#bfde596313)"><g transform="matrix(1, 0, 0, 1, 136, 150)"><g clip-path="url(#b010e986e7)"><g clip-path="url(#79101426d4)"><g clip-path="url(#e811c3c975)"><path fill="#ffffff" d="M 0.480469 0.335938 L 45.804688 0.335938 L 45.804688 45.484375 L 0.480469 45.484375 Z M 0.480469 0.335938 " fill-opacity="1" fill-rule="nonzero"/></g></g></g></g></g></g><g clip-path="url(#74efef6ccf)"><g clip-path="url(#ca4b3c9109)"><path stroke-linecap="butt" transform="matrix(0.75, 0, 0, 0.75, 136.480016, 150.33588)" fill="none" stroke-linejoin="miter" d="M 30.266229 0.0000770294 C 13.552688 0.0000770294 0.000604283 13.474035 0.000604283 30.093827 C 0.000604283 46.713619 13.552688 60.187577 30.266229 60.187577 C 46.979771 60.187577 60.526646 46.713619 60.526646 30.093827 C 60.526646 13.474035 46.979771 0.0000770294 30.266229 0.0000770294 Z M 30.266229 0.0000770294 " stroke="#000000" stroke-width="10" stroke-opacity="1" stroke-miterlimit="4"/></g></g><g transform="matrix(1, 0, 0, 1, 138, 158)"><g clip-path="url(#4664cf5a32)"><g clip-path="url(#8aa070bf8f)"><g clip-path="url(#c2dec5d4b6)"><g transform="matrix(1, 0, 0, 1, 0.000000000000028422, 0)"><g clip-path="url(#75b6b4714d)"><g clip-path="url(#00a0c3eef8)"><g clip-path="url(#d04e84f921)"><path fill="#000000" d="M 0.710938 0.996094 L 20.648438 0.996094 L 20.648438 20.851562 L 0.710938 20.851562 Z M 0.710938 0.996094 " fill-opacity="1" fill-rule="nonzero"/></g></g></g></g></g></g><g clip-path="url(#1ee84610d9)"><g clip-path="url(#f438eab4b6)"><g transform="matrix(1, 0, 0, 1, 3, 4)"><g clip-path="url(#dd28d7fe68)"><g clip-path="url(#e3b507cde1)"><g clip-path="url(#21d22f6a6a)"><path fill="#ffffff" d="M 0.199219 0.929688 L 8.542969 0.929688 L 8.542969 9.242188 L 0.199219 9.242188 Z M 0.199219 0.929688 " fill-opacity="1" fill-rule="nonzero"/></g></g></g></g></g></g></g></g><g transform="matrix(1, 0, 0, 1, 171, 109)"><g clip-path="url(#a029209aa0)"><g clip-path="url(#21a768c036)"><g clip-path="url(#a9b26dec47)"><g transform="matrix(1, 0, 0, 1, 24, 24)"><g clip-path="url(#87a13a76cd)"><g clip-path="url(#ea2ccda33e)"><g clip-path="url(#7ab0521d9b)"><path fill="#ffffff" d="M 0.601562 0.703125 L 45.925781 0.703125 L 45.925781 45.851562 L 0.601562 45.851562 Z M 0.601562 0.703125 " fill-opacity="1" fill-rule="nonzero"/></g></g></g></g></g></g><g clip-path="url(#1c90e8267e)"><g clip-path="url(#9158ad3294)"><path stroke-linecap="butt" transform="matrix(0.965941, 0, 0, 0.965941, 24.599816, 24.703092)" fill="none" stroke-linejoin="miter" d="M 23.501388 0.000034474 C 10.520205 0.000034474 0.00180811 10.461816 0.00180811 23.366163 C 0.00180811 36.27051 10.520205 46.736335 23.501388 46.736335 C 36.478526 46.736335 46.996924 36.27051 46.996924 23.366163 C 46.996924 10.461816 36.478526 0.000034474 23.501388 0.000034474 Z M 23.501388 0.000034474 " stroke="#000000" stroke-width="7.764445" stroke-opacity="1" stroke-miterlimit="4"/></g></g><g clip-path="url(#e2a8fad6fe)"><g clip-path="url(#1c0c796976)"><g clip-path="url(#af1505aa1b)"><g transform="matrix(1, 0, 0, 1, 27, 31)"><g clip-path="url(#a31aff6724)"><g clip-path="url(#9edd56ab36)"><g clip-path="url(#8bf2e11576)"><g clip-path="url(#07687c2b8c)"><path fill="#000000" d="M -0.730469 1.601562 L 19.078125 -0.65625 L 21.328125 19.074219 L 1.519531 21.332031 Z M -0.730469 1.601562 " fill-opacity="1" fill-rule="nonzero"/></g></g></g></g></g></g></g></g><g clip-path="url(#3c89f2a823)"><g clip-path="url(#b477fcb08c)"><g clip-path="url(#4f267d705c)"><g transform="matrix(1, 0, 0, 1, 29, 35)"><g clip-path="url(#e021063429)"><g clip-path="url(#aebd4aebe9)"><g clip-path="url(#19f3bb004c)"><g clip-path="url(#d614bcd491)"><path fill="#ffffff" d="M 0.1875 1.230469 L 8.476562 0.285156 L 9.417969 8.542969 L 1.128906 9.488281 Z M 0.1875 1.230469 " fill-opacity="1" fill-rule="nonzero"/></g></g></g></g></g></g></g></g></g></g></svg>