<svg xmlns="http://www.w3.org/2000/svg" xmlns:xlink="http://www.w3.org/1999/xlink" width="500" zoomAndPan="magnify" viewBox="0 0 375 374.999991" height="500" preserveAspectRatio="xMidYMid meet" version="1.0"><defs><g/><clipPath id="6703a01e20"><rect x="0" width="154" y="0" height="347"/></clipPath><clipPath id="bc79e7488e"><path d="M 40.972656 119.996094 L 89.710938 119.996094 L 89.710938 168.734375 L 40.972656 168.734375 Z M 40.972656 119.996094 " clip-rule="nonzero"/></clipPath><clipPath id="7784c307f7"><path d="M 65.339844 119.996094 C 51.882812 119.996094 40.972656 130.90625 40.972656 144.363281 C 40.972656 157.824219 51.882812 168.734375 65.339844 168.734375 C 78.800781 168.734375 89.710938 157.824219 89.710938 144.363281 C 89.710938 130.90625 78.800781 119.996094 65.339844 119.996094 Z M 65.339844 119.996094 " clip-rule="nonzero"/></clipPath><clipPath id="4ede17a94a"><path d="M 0.972656 0.996094 L 49.710938 0.996094 L 49.710938 49.734375 L 0.972656 49.734375 Z M 0.972656 0.996094 " clip-rule="nonzero"/></clipPath><clipPath id="81b0381d14"><path d="M 25.339844 0.996094 C 11.882812 0.996094 0.972656 11.90625 0.972656 25.363281 C 0.972656 38.824219 11.882812 49.734375 25.339844 49.734375 C 38.800781 49.734375 49.710938 38.824219 49.710938 25.363281 C 49.710938 11.90625 38.800781 0.996094 25.339844 0.996094 Z M 25.339844 0.996094 " clip-rule="nonzero"/></clipPath><clipPath id="a0a616cf12"><rect x="0" width="50" y="0" height="50"/></clipPath><clipPath id="888e4b2c4f"><path d="M 75.109375 95.625 L 123.847656 95.625 L 123.847656 144.363281 L 75.109375 144.363281 Z M 75.109375 95.625 " clip-rule="nonzero"/></clipPath><clipPath id="42777c9cc8"><path d="M 99.476562 95.625 C 86.019531 95.625 75.109375 106.535156 75.109375 119.996094 C 75.109375 133.453125 86.019531 144.363281 99.476562 144.363281 C 112.9375 144.363281 123.847656 133.453125 123.847656 119.996094 C 123.847656 106.535156 112.9375 95.625 99.476562 95.625 Z M 99.476562 95.625 " clip-rule="nonzero"/></clipPath><clipPath id="bccad7df3b"><path d="M 0.109375 0.625 L 48.847656 0.625 L 48.847656 49.363281 L 0.109375 49.363281 Z M 0.109375 0.625 " clip-rule="nonzero"/></clipPath><clipPath id="76f405edec"><path d="M 24.476562 0.625 C 11.019531 0.625 0.109375 11.535156 0.109375 24.996094 C 0.109375 38.453125 11.019531 49.363281 24.476562 49.363281 C 37.9375 49.363281 48.847656 38.453125 48.847656 24.996094 C 48.847656 11.535156 37.9375 0.625 24.476562 0.625 Z M 24.476562 0.625 " clip-rule="nonzero"/></clipPath><clipPath id="473f41c3cf"><rect x="0" width="49" y="0" height="50"/></clipPath><clipPath id="4861e2cc9c"><rect x="0" width="154" y="0" height="345"/></clipPath></defs><g transform="matrix(1, 0, 0, 1, 4, 14)"><g clip-path="url(#6703a01e20)"><g fill="#ffffff" fill-opacity="1"><g transform="translate(0.814097, 265.928986)"><g><path d="M 149.171875 -178.796875 L 149.171875 -158.015625 L 63.6875 -86.15625 L 149.171875 -11.921875 L 149.171875 9.53125 L 3.0625 -86.84375 Z M 149.171875 -178.796875 "/></g></g></g></g></g><g clip-path="url(#bc79e7488e)"><g clip-path="url(#7784c307f7)"><g transform="matrix(1, 0, 0, 1, 40, 119)"><g clip-path="url(#a0a616cf12)"><g clip-path="url(#4ede17a94a)"><g clip-path="url(#81b0381d14)"><path fill="#000000" d="M 0.972656 0.996094 L 49.710938 0.996094 L 49.710938 49.734375 L 0.972656 49.734375 Z M 0.972656 0.996094 " fill-opacity="1" fill-rule="nonzero"/></g></g></g></g></g></g><g clip-path="url(#888e4b2c4f)"><g clip-path="url(#42777c9cc8)"><g transform="matrix(1, 0, 0, 1, 75, 95)"><g clip-path="url(#473f41c3cf)"><g clip-path="url(#bccad7df3b)"><g clip-path="url(#76f405edec)"><path fill="#000000" d="M 0.109375 0.625 L 48.847656 0.625 L 48.847656 49.363281 L 0.109375 49.363281 Z M 0.109375 0.625 " fill-opacity="1" fill-rule="nonzero"/></g></g></g></g></g></g><g transform="matrix(1, 0, 0, 1, 213, 30)"><g clip-path="url(#4861e2cc9c)"><g fill="#ffffff" fill-opacity="1"><g transform="translate(153.606249, 80.861176)"><g><path d="M -149.171875 178.796875 L -149.171875 158.015625 L -63.6875 86.15625 L -149.171875 11.921875 L -149.171875 -9.53125 L -3.0625 86.84375 Z M -149.171875 178.796875 "/></g></g></g></g></g></svg>